<svg xmlns="http://www.w3.org/2000/svg" version="1.1" xmlns:xlink="http://www.w3.org/1999/xlink" xmlns:svgjs="http://svgjs.dev/svgjs" width="2000" height="686" viewBox="0 0 2000 686"><g transform="matrix(1,0,0,1,-1.2112696095522324,-0.6866714807427456)"><svg viewBox="0 0 396 136" data-background-color="#fafafa" preserveAspectRatio="xMidYMid meet" height="686" width="2000" xmlns="http://www.w3.org/2000/svg" xmlns:xlink="http://www.w3.org/1999/xlink"><g id="tight-bounds" transform="matrix(1,0,0,1,0.24008861730862918,0.13613312154666346)"><svg viewBox="0 0 395.52 135.72766849160348" height="135.72766849160348" width="395.52"><g><svg viewBox="0 0 395.52 135.72766849160348" height="135.72766849160348" width="395.52"><g><svg viewBox="0 0 395.52 135.72766849160348" height="135.72766849160348" width="395.52"><g id="textblocktransform"><svg viewBox="0 0 395.52 135.72766849160348" height="135.72766849160348" width="395.52" id="textblock"><g><svg viewBox="0 0 395.52 135.72766849160348" height="135.72766849160348" width="395.52"><path d="M394.594 29.111C392.735 15.023 387.435 11.106 387.435 11.106 371.165-3.405 350.86-0.278 332.619 1.808 300.414 1.892 268.339 4.992 236.208 6.654 168.767 6.908 100.749 2.737 33.643 13.022 27.339 16.178-6.54 13.642 1.121 30.914 3.129 38.099 10.456 46.074 10.232 52.667 11.236 53.822 12.631 51.174 13.226 52.836 15.309 57.316 18.711 55.203 21.501 57.851 17.614 64.924 20.403 70.813 23.062 76.984 18.377 78.59 12.371 77.829 9.675 83.154 9.396 87.015 7.89 86.282 6.235 86.113 5.026 86 2.59 86.423 2.999 87.635 4.394 91.777-1.594 94.172 2.162 98.229-0.422 102.625 3.948 106.429 3.353 111.19 3.278 112.149 3.687 112.966 4.338 113.191 7.22 114.403 3.018 116.77 3.464 119.334 33.029 136.86 65.104 124.744 95.394 132.802 103.259 127.167 97.346 134.803 100.489 133.619 102.943 132.239 104.728 137.959 107.499 134.718 107.927 133.788 107.276 131.591 108.8 132.013 109.6 132.239 110.307 132.182 110.418 130.886 110.586 128.942 109.117 130.154 108.726 129.139 112.947 124.011 111.906 136.212 115.866 135.704 115.68 134.211 114.528 132.07 116.889 132.351 119.232 130.21 119.306 128.435 121.389 133.253 121.463 134.296 121.835 135.028 122.43 135.535 128.938 130.294 135.409 137.395 142.233 135.028 146.417 132.436 150.433 136.437 154.672 135.451 156.16 134.662 157.666 133.253 159.098 135.62 176.632 136.127 195.319 134.014 211.943 135.704 256.364 132.549 303.836 137.001 350.674 132.83 361.719 131.224 373.192 128.942 383.958 127.11 383.958 127.11 392.679 122.095 392.679 99.553S394.538 79.83 394.817 61.881C395.096 43.932 396.398 43.199 394.538 29.111Z" opacity="1" fill="#000000" data-fill-palette-color="tertiary"></path><g transform="matrix(1,0,0,1,55.76832,26.230666666666668)"><svg width="283.98335999999995" viewBox="3.25 -38.01 164.26 48.169999999999995" height="83.26633515827015" data-palette-color="#fafafa"><path d="M22.31-14.82L22.31-11.94Q22.31-5.66 20.06-2.59 17.8 0.49 13.67 0.49L13.67 0.49Q9.69 0.49 7.54-2.51L7.54-2.51 7.54 10.16 3.25 10.16 3.25-26.42 7.15-26.42 7.37-23.49Q9.55-26.9 13.6-26.9L13.6-26.9Q17.94-26.9 20.09-23.88 22.24-20.85 22.31-14.82L22.31-14.82ZM18.02-11.77L18.02-14.4Q18.02-18.85 16.65-20.96 15.28-23.07 12.26-23.07L12.26-23.07Q9.16-23.07 7.54-19.97L7.54-19.97 7.54-6.23Q9.13-3.2 12.3-3.2L12.3-3.2Q15.23-3.2 16.61-5.31 17.99-7.42 18.02-11.77L18.02-11.77ZM26.98-11.55L26.98-14.43Q26.98-20.19 29.77-23.55 32.57-26.9 37.16-26.9 41.75-26.9 44.54-23.63 47.34-20.36 47.41-14.72L47.41-14.72 47.41-11.94Q47.41-6.2 44.63-2.86 41.84 0.49 37.2 0.49L37.2 0.49Q32.61 0.49 29.84-2.76 27.07-6.01 26.98-11.55L26.98-11.55ZM31.3-14.45L31.3-11.94Q31.3-7.86 32.9-5.53 34.49-3.2 37.2-3.2L37.2-3.2Q42.92-3.2 43.09-11.45L43.09-11.45 43.09-14.43Q43.09-18.48 41.48-20.84 39.87-23.19 37.16-23.19L37.16-23.19Q34.49-23.19 32.9-20.84 31.3-18.48 31.3-14.45L31.3-14.45ZM63.86-26.56L63.89-22.36Q62.98-22.53 61.93-22.53L61.93-22.53Q58.61-22.53 57.29-18.9L57.29-18.9 57.29 0 52.97 0 52.97-26.42 57.17-26.42 57.25-23.73Q58.98-26.9 62.15-26.9L62.15-26.9Q63.18-26.9 63.86-26.56L63.86-26.56ZM70.77-32.81L75.07-32.81 75.07-26.42 79.05-26.42 79.05-22.92 75.07-22.92 75.07-6.54Q75.07-4.98 75.58-4.17 76.09-3.37 77.34-3.37L77.34-3.37Q78.19-3.37 79.07-3.66L79.07-3.66 79.02 0Q77.56 0.49 76.02 0.49L76.02 0.49Q73.45 0.49 72.11-1.34 70.77-3.17 70.77-6.52L70.77-6.52 70.77-22.92 66.74-22.92 66.74-26.42 70.77-26.42 70.77-32.81ZM90.4 0L86.07 0 86.07-22.92 82.63-22.92 82.63-26.42 86.07-26.42 86.07-29.47Q86.15-33.5 88.11-35.75 90.08-38.01 93.67-38.01L93.67-38.01Q94.96-38.01 96.28-37.6L96.28-37.6 96.06-33.94Q95.13-34.16 94.08-34.16L94.08-34.16Q90.4-34.16 90.4-28.91L90.4-28.91 90.4-26.42 94.91-26.42 94.91-22.92 90.4-22.92 90.4 0ZM99.08-11.55L99.08-14.43Q99.08-20.19 101.88-23.55 104.68-26.9 109.26-26.9 113.85-26.9 116.65-23.63 119.45-20.36 119.52-14.72L119.52-14.72 119.52-11.94Q119.52-6.2 116.74-2.86 113.95 0.49 109.31 0.49L109.31 0.49Q104.72 0.49 101.95-2.76 99.18-6.01 99.08-11.55L99.08-11.55ZM103.41-14.45L103.41-11.94Q103.41-7.86 105-5.53 106.6-3.2 109.31-3.2L109.31-3.2Q115.03-3.2 115.2-11.45L115.2-11.45 115.2-14.43Q115.2-18.48 113.59-20.84 111.97-23.19 109.26-23.19L109.26-23.19Q106.6-23.19 105-20.84 103.41-18.48 103.41-14.45L103.41-14.45ZM129.75-37.5L129.75 0 125.42 0 125.42-37.5 129.75-37.5ZM141.19-26.42L141.19 0 136.87 0 136.87-26.42 141.19-26.42ZM141.54-33.42L141.54-33.42Q141.54-32.32 140.92-31.59 140.31-30.86 139.07-30.86L139.07-30.86Q137.85-30.86 137.24-31.59 136.63-32.32 136.63-33.42 136.63-34.52 137.24-35.28 137.85-36.04 139.07-36.04 140.29-36.04 140.91-35.27 141.54-34.5 141.54-33.42ZM147.07-11.55L147.07-14.43Q147.07-20.19 149.87-23.55 152.67-26.9 157.26-26.9 161.85-26.9 164.64-23.63 167.44-20.36 167.51-14.72L167.51-14.72 167.51-11.94Q167.51-6.2 164.73-2.86 161.94 0.49 157.3 0.49L157.3 0.49Q152.71 0.49 149.94-2.76 147.17-6.01 147.07-11.55L147.07-11.55ZM151.4-14.45L151.4-11.94Q151.4-7.86 153-5.53 154.59-3.2 157.3-3.2L157.3-3.2Q163.02-3.2 163.19-11.45L163.19-11.45 163.19-14.43Q163.19-18.48 161.58-20.84 159.97-23.19 157.26-23.19L157.26-23.19Q154.59-23.19 153-20.84 151.4-18.48 151.4-14.45L151.4-14.45Z" opacity="1" transform="matrix(1,0,0,1,0,0)" fill="#ffffff" class="wordmark-text-0" data-fill-palette-color="quaternary" id="text-0"></path></svg></g></svg></g></svg></g></svg></g><g></g></svg></g><defs></defs></svg><rect width="395.52" height="135.72766849160348" fill="none" stroke="none" visibility="hidden"></rect></g></svg></g></svg>