<svg width="1501" height="421" viewBox="0 0 1501 421" fill="none" xmlns="http://www.w3.org/2000/svg">
<g clip-path="url(#clip0_278_70)">
<g clip-path="url(#clip1_278_70)">
<g clip-path="url(#clip2_278_70)">
<g clip-path="url(#clip3_278_70)">
<g clip-path="url(#clip4_278_70)">
<g clip-path="url(#clip5_278_70)">
<path d="M1494.87 90.9154C1487.83 47.4019 1467.78 35.3051 1467.78 35.3051C1406.22 -9.51759 1329.39 0.142405 1260.37 6.5824C1138.51 6.84349 1017.15 16.4202 895.571 21.5548C640.389 22.3381 383.023 9.4543 129.109 41.2229C105.256 50.97 -22.9352 43.1375 6.05241 96.4851C13.6502 118.681 41.374 143.309 40.5265 163.674C44.3254 167.242 49.6038 159.061 51.8551 164.196C59.7367 178.033 72.6092 171.506 83.1659 179.687C68.4584 201.531 79.0113 219.723 89.0724 238.782C71.3454 243.742 48.62 241.393 38.4189 257.841C37.3632 269.763 31.6648 267.501 25.4027 266.979C20.8281 266.631 11.6108 267.936 13.1584 271.678C18.4367 284.471 -4.22056 291.868 9.99133 304.4C0.21403 317.976 16.7492 329.729 14.4978 344.436C14.214 347.395 15.7616 349.919 18.2248 350.615C29.1297 354.358 13.2302 361.668 14.9178 369.587C126.785 423.718 248.15 386.296 362.761 411.186C392.521 393.781 370.147 417.365 382.039 413.71C391.325 409.446 398.079 427.116 408.564 417.104C410.183 414.232 407.72 407.444 413.486 408.749C416.513 409.446 419.189 409.272 419.609 405.268C420.244 399.263 414.686 403.006 413.206 399.873C429.178 384.034 425.239 421.716 440.223 420.15C439.519 415.538 435.16 408.923 444.093 409.794C452.959 403.18 453.239 397.697 461.121 412.579C461.401 415.799 462.808 418.061 465.059 419.628C489.684 403.441 514.169 425.375 539.99 418.061C555.821 410.055 571.017 422.413 587.056 419.367C592.686 416.93 598.385 412.579 603.803 419.889C670.148 421.455 740.856 414.928 803.757 420.15C971.837 410.403 1151.46 424.153 1328.69 411.273C1370.48 406.313 1413.89 399.263 1454.62 393.607C1454.62 393.607 1487.62 378.116 1487.62 308.491C1487.62 238.865 1494.66 247.572 1495.71 192.132C1496.77 136.695 1501.69 134.433 1494.66 90.9154H1494.87Z" fill="white"/>
<g clip-path="url(#clip6_278_70)">
<path d="M294.875 146.807C311.732 146.807 324.73 152.321 333.867 163.349C343.005 174.377 347.574 190.683 347.574 212.267C347.574 233.693 343.005 249.872 333.867 260.806C324.73 271.771 311.732 277.254 294.875 277.254C280.381 277.254 268.723 272.527 259.9 263.075V320.972H212.873V149.643H251.157L255.174 167.366C264.312 153.66 277.545 146.807 294.875 146.807ZM280.224 181.545C273.292 181.545 268.093 183.987 264.627 188.871C261.161 193.755 259.428 200.136 259.428 208.013V215.811C259.428 223.688 261.161 230.101 264.627 235.047C268.093 240.026 273.292 242.515 280.224 242.515C293.772 242.515 300.547 234.401 300.547 218.174V205.65C300.547 189.58 293.772 181.545 280.224 181.545ZM434.775 146.807C456.673 146.807 473.877 152.352 486.386 163.443C498.927 174.566 505.197 190.762 505.197 212.03C505.197 233.299 498.927 249.478 486.386 260.57C473.877 271.692 456.673 277.254 434.775 277.254C412.876 277.254 395.704 271.74 383.258 260.711C370.812 249.683 364.589 233.456 364.589 212.03C364.589 190.604 370.812 174.377 383.258 163.349C395.704 152.321 412.876 146.807 434.775 146.807ZM434.775 178.71C419.335 178.71 411.616 187.611 411.616 205.413V218.883C411.616 236.528 419.335 245.351 434.775 245.351C450.371 245.351 458.17 236.528 458.17 218.883V205.413C458.17 187.611 450.371 178.71 434.775 178.71ZM603.741 146.57C607.364 146.57 610.594 146.996 613.43 147.847C616.266 148.729 617.684 149.249 617.684 149.406V188.871H602.559C592.792 188.871 585.734 191.392 581.385 196.433C577.069 201.475 574.91 208.958 574.91 218.883V274.418H527.883V149.643H566.403L569.475 168.548C572.311 161.301 576.801 155.818 582.945 152.1C589.089 148.414 596.021 146.57 603.741 146.57ZM701.292 149.643H727.76V181.545H701.292V229.045C701.292 234.717 702.238 238.844 704.128 241.428C706.019 244.043 709.485 245.351 714.526 245.351H727.76V273C723.979 274.26 719.095 275.284 713.108 276.072C707.122 276.86 701.923 277.254 697.511 277.254C683.647 277.254 672.982 274.733 665.514 269.691C658.015 264.65 654.265 256.064 654.265 243.933V181.545H636.778V149.643H656.156L666.318 111.832H701.292V149.643ZM800.309 100.252C803.775 100.252 808.107 100.678 813.306 101.529C818.505 102.411 822.68 103.403 825.831 104.506V132.155H814.961C809.919 132.155 806.453 133.1 804.563 134.991C802.672 136.882 801.727 140.111 801.727 144.68V149.643H825.831V181.545H801.727V274.418H754.7V181.545H737.213V149.643H754.7V144.444C754.7 128.374 758.639 116.984 766.516 110.272C774.393 103.592 785.657 100.252 800.309 100.252ZM901.925 146.807C923.824 146.807 941.028 152.352 953.537 163.443C966.077 174.566 972.348 190.762 972.348 212.03C972.348 233.299 966.077 249.478 953.537 260.57C941.028 271.692 923.824 277.254 901.925 277.254C880.026 277.254 862.854 271.74 850.408 260.711C837.962 249.683 831.739 233.456 831.739 212.03C831.739 190.604 837.962 174.377 850.408 163.349C862.854 152.321 880.026 146.807 901.925 146.807ZM901.925 178.71C886.486 178.71 878.766 187.611 878.766 205.413V218.883C878.766 236.528 886.486 245.351 901.925 245.351C917.522 245.351 925.32 236.528 925.32 218.883V205.413C925.32 187.611 917.522 178.71 901.925 178.71ZM1043.72 274.418H996.688V103.088H1043.72V274.418ZM1122.36 134.991H1075.33V103.088H1122.36V134.991ZM1122.36 274.418H1075.33V149.643H1122.36V274.418ZM1216.89 146.807C1238.79 146.807 1256.01 152.352 1268.55 163.443C1281.06 174.566 1287.31 190.762 1287.31 212.03C1287.31 233.299 1281.06 249.478 1268.55 260.57C1256.01 271.692 1238.79 277.254 1216.89 277.254C1194.99 277.254 1177.82 271.74 1165.37 260.711C1152.92 249.683 1146.7 233.456 1146.7 212.03C1146.7 190.604 1152.92 174.377 1165.37 163.349C1177.82 152.321 1194.99 146.807 1216.89 146.807ZM1216.89 178.71C1201.45 178.71 1193.73 187.611 1193.73 205.413V218.883C1193.73 236.528 1201.45 245.351 1216.89 245.351C1232.48 245.351 1240.28 236.528 1240.28 218.883V205.413C1240.28 187.611 1232.48 178.71 1216.89 178.71Z" fill="black"/>
</g>
</g>
</g>
</g>
</g>
</g>
</g>
<defs>
<clipPath id="clip0_278_70">
<rect width="1500" height="420" fill="white" transform="translate(0.0915527 0.611694)"/>
</clipPath>
<clipPath id="clip1_278_70">
<rect width="1496.56" height="419.222" fill="white" transform="translate(1.81079 1.00134)"/>
</clipPath>
<clipPath id="clip2_278_70">
<rect width="1496.56" height="419.222" fill="white" transform="translate(1.81079 1.00134)"/>
</clipPath>
<clipPath id="clip3_278_70">
<rect width="1496.56" height="419.222" fill="white" transform="translate(1.81079 1.00134)"/>
</clipPath>
<clipPath id="clip4_278_70">
<rect width="1496.56" height="419.222" fill="white" transform="translate(1.81079 1.00134)"/>
</clipPath>
<clipPath id="clip5_278_70">
<rect width="1496.56" height="419.222" fill="white" transform="translate(1.81079 1.00134)"/>
</clipPath>
<clipPath id="clip6_278_70">
<rect width="1074.53" height="220.72" fill="white" transform="translate(212.826 100.252)"/>
</clipPath>
</defs>
</svg>
